<svg width="230" height="66" viewBox="0 0 230 66" fill="none" xmlns="http://www.w3.org/2000/svg">
<g clip-path="url(#clip0_14_87)">
<path d="M32.8763 6.58102C36.3818 6.57479 39.8523 7.28144 43.0784 8.65833C49.3968 11.3648 54.4296 16.4166 57.1259 22.7589C58.4935 25.9987 59.1982 29.4814 59.1982 33C59.1982 36.5186 58.4935 40.0013 57.1259 43.2411C54.4287 49.5829 49.3963 54.6344 43.0784 57.3417C39.8508 58.7144 36.3812 59.4218 32.8758 59.4218C29.3704 59.4218 25.9008 58.7144 22.6732 57.3417C16.3548 54.6352 11.322 49.5834 8.62575 43.2411C7.25815 40.0013 6.55341 36.5186 6.55341 33C6.55341 29.4814 7.25815 25.9987 8.62575 22.7589C11.3213 16.4161 16.3543 11.3641 22.6732 8.65833C25.8995 7.28119 29.3704 6.57453 32.8763 6.58102ZM32.8763 0C14.7943 0 0 14.8502 0 33.0005C0 51.1507 14.7943 66.001 32.8763 66.001C50.9582 66.001 65.7526 51.1507 65.7526 33.0005C65.7526 14.8502 50.9573 0 32.8763 0Z" fill="white"/>
<path d="M52.6011 33.0005C52.5451 22.1094 43.7359 13.2488 32.8763 13.2488C21.9986 13.2488 13.1781 22.0874 13.1515 32.9995V39.5996H19.7267L13.1515 46.1997L19.7077 52.7807L32.8402 39.5996H32.9248L46.042 52.7664L52.5983 46.1854L46.042 39.6044H52.604L52.6011 33.0005ZM39.4326 32.9671L39.3993 32.9995H26.3353L26.3182 32.9824L26.3011 32.9995H19.7039C19.7334 29.5126 21.1341 26.1786 23.6009 23.7234C26.0678 21.2682 29.401 19.8906 32.8749 19.8906C36.3488 19.8906 39.682 21.2682 42.1489 23.7234C44.6157 26.1786 46.0163 29.5126 46.0458 32.9995H39.4639L39.4326 32.9671Z" fill="white"/>
<path d="M84.3657 24.2544L82.9556 25.83V30.4501H76.7794V11.7562H82.9556V18.5394L89.0748 11.7562H95.9161L88.4619 19.9815L96.2838 30.4501H89.0216L84.3657 24.2544Z" fill="white"/>
<path d="M109.321 17.2976C110.669 18.4459 111.343 20.213 111.343 22.5987V30.4501H105.755V28.5273C105.064 29.9897 103.689 30.721 101.631 30.721C100.478 30.721 99.498 30.5207 98.6916 30.1201C97.8852 29.7195 97.2733 29.1765 96.8559 28.4911C96.4359 27.7951 96.2192 26.9946 96.2307 26.181C96.2307 24.7389 96.7805 23.644 97.8802 22.8962C98.9798 22.1485 100.647 21.7746 102.882 21.7746H105.303C105.107 20.6358 104.194 20.0661 102.563 20.0654C101.886 20.0688 101.214 20.1723 100.567 20.3726C99.947 20.5511 99.3619 20.8357 98.8379 21.2138L96.9224 17.2346C97.7554 16.719 98.7619 16.3139 99.942 16.0195C101.095 15.7291 102.279 15.5811 103.467 15.5789C106.022 15.5764 107.973 16.1493 109.321 17.2976ZM104.586 26.7399C104.941 26.4841 105.203 26.1181 105.331 25.6984V24.6817H103.841C102.617 24.6817 102.005 25.0912 102.005 25.9101C102.002 26.0705 102.035 26.2295 102.102 26.3752C102.168 26.5209 102.267 26.6495 102.391 26.7514C102.644 26.9746 102.994 27.0858 103.442 27.0852C103.849 27.0907 104.249 26.9694 104.586 26.738V26.7399Z" fill="white"/>
<path d="M114.602 13.7992C114.282 13.5309 114.026 13.1934 113.853 12.812C113.68 12.4305 113.595 12.0149 113.605 11.596C113.595 11.1771 113.68 10.7615 113.853 10.3801C114.026 9.99863 114.282 9.66117 114.602 9.39274C115.268 8.81476 116.141 8.52545 117.223 8.52481C118.323 8.52481 119.201 8.80077 119.857 9.35268C120.173 9.60921 120.426 9.9353 120.597 10.3058C120.768 10.6762 120.851 11.0811 120.841 11.4891C120.841 12.4149 120.513 13.176 119.857 13.7725C119.201 14.3689 118.323 14.6671 117.223 14.6671C116.141 14.6671 115.268 14.3778 114.602 13.7992ZM114.217 15.8421H120.229V30.4501H114.217V15.8421Z" fill="white"/>
<path d="M126.494 29.7424C125.26 29.1386 124.215 28.2055 123.474 27.0451C122.747 25.8968 122.383 24.5933 122.383 23.1347C122.383 21.676 122.747 20.3725 123.474 19.2242C124.213 18.0657 125.259 17.1364 126.494 16.5403C127.78 15.8994 129.23 15.5789 130.844 15.5789C132.476 15.5789 133.935 15.8994 135.22 16.5403C136.506 17.1812 137.508 18.0759 138.227 19.2242C138.945 20.3725 139.304 21.676 139.304 23.1347C139.304 24.5933 138.945 25.8968 138.227 27.0451C137.508 28.1935 136.506 29.0926 135.22 29.7424C133.934 30.3922 132.474 30.7171 130.84 30.7171C129.229 30.7171 127.78 30.3922 126.494 29.7424ZM132.547 25.2597C132.99 24.751 133.212 24.0433 133.212 23.1366C133.212 22.2299 132.99 21.5266 132.547 21.0268C132.329 20.791 132.066 20.6029 131.773 20.4742C131.48 20.3455 131.164 20.2791 130.844 20.2791C130.524 20.2791 130.208 20.3455 129.915 20.4742C129.622 20.6029 129.358 20.791 129.141 21.0268C128.698 21.526 128.476 22.2292 128.476 23.1366C128.476 24.0439 128.698 24.7516 129.141 25.2597C129.356 25.4992 129.619 25.6908 129.912 25.8219C130.205 25.953 130.523 26.0208 130.844 26.0208C131.165 26.0208 131.482 25.953 131.776 25.8219C132.069 25.6908 132.332 25.4992 132.547 25.2597Z" fill="white"/>
<path d="M154.203 29.6356C152.667 28.8486 151.382 27.6461 150.492 26.1639C149.596 24.6779 149.148 22.991 149.148 21.1031C149.148 19.2153 149.596 17.5284 150.492 16.0424C151.382 14.5605 152.668 13.3579 154.203 12.5707C155.781 11.7441 157.555 11.3308 159.524 11.3308C161.333 11.3308 162.949 11.6513 164.37 12.2922C165.756 12.906 166.966 13.8613 167.886 15.0696L163.921 18.6214C162.768 17.159 161.411 16.4278 159.851 16.4278C158.538 16.4278 157.482 16.8506 156.685 17.6963C155.887 18.542 155.488 19.6769 155.488 21.1012C155.488 22.5262 155.887 23.6612 156.685 24.5062C157.483 25.3512 158.538 25.7741 159.851 25.7747C161.411 25.7747 162.768 25.0435 163.921 23.581L167.886 27.1329C166.966 28.3414 165.756 29.2968 164.37 29.9103C162.95 30.5512 161.335 30.8717 159.524 30.8717C157.555 30.8755 155.782 30.4635 154.203 29.6356Z" fill="white"/>
<path d="M184.771 24.5482H174.661C174.859 25.0819 175.235 25.5302 175.726 25.8167C176.222 26.1104 176.843 26.2573 177.588 26.2573C178.134 26.2718 178.679 26.1904 179.198 26.017C179.711 25.8125 180.191 25.5336 180.623 25.1891L183.759 28.3671C182.339 29.9344 180.219 30.7178 177.399 30.7172C175.643 30.7172 174.1 30.3922 172.77 29.7424C171.439 29.0926 170.411 28.189 169.684 27.0318C168.954 25.8648 168.575 24.5109 168.593 23.1328C168.593 21.6735 168.952 20.37 169.67 19.2223C170.39 18.0726 171.412 17.144 172.623 16.5384C173.874 15.8975 175.279 15.577 176.84 15.577C178.313 15.577 179.657 15.8708 180.871 16.4583C182.064 17.0264 183.07 17.9252 183.771 19.0487C184.489 20.1888 184.848 21.5508 184.848 23.1347C184.85 23.2262 184.825 23.6974 184.771 24.5482ZM175.353 20.1952C174.946 20.5334 174.68 21.0141 174.555 21.6373H179.238C179.114 21.0326 178.848 20.5557 178.44 20.2066C178.032 19.8575 177.518 19.6839 176.896 19.6858C176.276 19.6871 175.762 19.8569 175.353 20.1952Z" fill="white"/>
<path d="M189.028 30.3166C187.825 30.0495 186.849 29.7023 186.102 29.2751L187.756 25.2959C188.502 25.7349 189.309 26.059 190.15 26.2573C191.028 26.4832 191.931 26.5998 192.837 26.6045C193.529 26.6045 194.012 26.5466 194.287 26.4309C194.563 26.3155 194.7 26.1448 194.7 25.9101C194.7 25.6755 194.527 25.5191 194.181 25.4333C193.624 25.31 193.06 25.2208 192.492 25.1662C191.469 25.0546 190.456 24.8716 189.459 24.6187C188.623 24.3952 187.864 23.9474 187.264 23.3235C186.635 22.6826 186.32 21.7657 186.319 20.5728C186.312 19.6547 186.613 18.7609 187.174 18.0358C187.744 17.2881 188.591 16.6916 189.715 16.2465C190.839 15.8014 192.191 15.5789 193.772 15.5789C194.857 15.5779 195.938 15.6807 197.003 15.886C198.058 16.0908 198.958 16.389 199.703 16.7806L198.054 20.7598C196.768 20.0456 195.32 19.6776 193.85 19.6916C192.538 19.6916 191.882 19.923 191.882 20.3859C191.882 20.618 192.059 20.7827 192.414 20.88C192.965 21.0123 193.525 21.106 194.09 21.1604C195.109 21.2714 196.118 21.4589 197.109 21.7212C197.941 21.955 198.695 22.4067 199.295 23.0298C199.925 23.6707 200.24 24.5876 200.239 25.7804C200.24 26.6801 199.939 27.5538 199.384 28.2602C198.814 29.008 197.963 29.6044 196.83 30.0495C195.697 30.4946 194.323 30.7172 192.706 30.7172C191.469 30.7183 190.236 30.584 189.028 30.3166Z" fill="white"/>
<path d="M214.676 17.2976C216.024 18.4459 216.698 20.213 216.698 22.5987V30.4501H211.111V28.5273C210.419 29.9897 209.044 30.721 206.987 30.721C205.834 30.721 204.855 30.5207 204.047 30.1201C203.239 29.7195 202.627 29.1765 202.211 28.4911C201.791 27.7951 201.574 26.9946 201.586 26.181C201.586 24.7389 202.136 23.644 203.235 22.8962C204.335 22.1485 206.002 21.7746 208.237 21.7746H210.655C210.46 20.6358 209.546 20.0661 207.915 20.0654C207.238 20.0688 206.566 20.1723 205.92 20.3726C205.299 20.5511 204.714 20.8357 204.19 21.2138L202.275 17.2346C203.108 16.719 204.114 16.3139 205.294 16.0195C206.447 15.7291 207.631 15.5811 208.82 15.5789C211.374 15.5764 213.326 16.1493 214.676 17.2976ZM209.94 26.7399C210.295 26.4841 210.557 26.1181 210.685 25.6984V24.6817H209.195C207.971 24.6817 207.359 25.0912 207.359 25.9101C207.356 26.0705 207.389 26.2295 207.456 26.3752C207.523 26.5209 207.622 26.6495 207.745 26.7514C208.003 26.9746 208.353 27.0858 208.796 27.0852C209.204 27.0907 209.603 26.9694 209.94 26.738V26.7399Z" fill="white"/>
<path d="M230 15.5751V20.9162C229.56 20.8484 229.115 20.8127 228.67 20.8094C226.612 20.8094 225.583 21.8585 225.584 23.9568V30.4425H219.571V15.8421H225.288V17.4178C226.354 16.1893 227.925 15.5751 230 15.5751Z" fill="white"/>
<path d="M88.7907 36.889C89.9414 37.4756 90.9086 38.3693 91.5861 39.4718C92.2488 40.5593 92.5935 41.8119 92.581 43.0866C92.581 44.0995 92.4084 44.9662 92.0631 45.6866C91.7179 46.407 91.252 46.9516 90.6654 47.3204C90.0817 47.6876 89.4054 47.8793 88.7166 47.8726C88.0914 47.8726 87.5596 47.7518 87.1212 47.5102C86.6828 47.2675 86.3319 46.892 86.1188 46.4372C85.6361 47.3948 84.8028 47.8733 83.6189 47.8726C83.0153 47.8726 82.4245 47.6981 81.9171 47.37C81.3662 47.0126 80.9207 46.5137 80.6268 45.925C80.3036 45.2522 80.1351 44.5151 80.1336 43.7681C80.1321 43.0211 80.2977 42.2834 80.6182 41.6092C80.9104 41.0229 81.3553 40.5269 81.9057 40.1738C82.416 39.845 83.0096 39.6702 83.616 39.6702C84.4826 39.6702 85.1569 39.9398 85.639 40.479V39.818H88.7964V44.5411C88.7964 45.1458 89.0102 45.4485 89.4378 45.4491C89.7 45.4491 89.9062 45.2784 90.0535 44.9369C90.2008 44.5955 90.2758 43.9965 90.2758 43.1381C90.2923 42.2097 90.0505 41.2951 89.5775 40.4971C89.1039 39.7194 88.4207 39.0921 87.6068 38.6878C86.7573 38.2529 85.7789 38.0358 84.6717 38.0364C83.5644 38.037 82.5825 38.2761 81.7261 38.7536C80.8904 39.2129 80.2007 39.8995 79.7364 40.7346C79.2604 41.5949 79.0167 42.5652 79.0295 43.5492C79.0129 44.5475 79.2538 45.5332 79.7288 46.4105C80.1838 47.242 80.8654 47.9262 81.6938 48.3829C82.5376 48.856 83.5077 49.0925 84.6042 49.0925C85.7519 49.094 86.8864 48.8464 87.9298 48.3667L88.6206 50.3963C88.0371 50.6676 87.421 50.8619 86.7877 50.9743C86.0701 51.1162 85.3404 51.1881 84.609 51.1889C82.9975 51.1889 81.575 50.856 80.3417 50.1903C79.1524 49.566 78.1639 48.6158 77.4912 47.4501C76.8222 46.2897 76.4878 44.9888 76.4878 43.5473C76.4709 42.1917 76.8203 40.8568 77.4988 39.6845C78.1822 38.5205 79.1761 37.5714 80.3683 36.9443C81.6061 36.2735 83.0421 35.9381 84.6764 35.9381C86.2195 35.9394 87.5909 36.2564 88.7907 36.889ZM85.3786 44.8854C85.5984 44.6209 85.708 44.247 85.7074 43.7638C85.7067 43.2806 85.5971 42.9089 85.3786 42.6488C85.2747 42.5234 85.1437 42.4233 84.9955 42.3562C84.8474 42.2891 84.6859 42.2568 84.5234 42.2616C84.3621 42.2562 84.2017 42.2883 84.0548 42.3555C83.908 42.4226 83.7786 42.5231 83.6768 42.6488C83.4634 42.9083 83.3563 43.2799 83.3557 43.7638C83.355 44.2477 83.4621 44.6216 83.6768 44.8854C83.7772 45.0134 83.9061 45.116 84.0531 45.1849C84.2002 45.2538 84.3612 45.2871 84.5234 45.2822C84.6868 45.2866 84.849 45.2531 84.9973 45.1843C85.1456 45.1155 85.2761 45.0132 85.3786 44.8854Z" fill="white"/>
<path d="M96.8235 47.2212C95.8746 46.7344 95.0802 45.9911 94.5298 45.0752C93.9856 44.1232 93.6993 43.0448 93.6993 41.9473C93.6993 40.8498 93.9856 39.7714 94.5298 38.8194C95.0802 37.9038 95.8747 37.1608 96.8235 36.6744C97.799 36.1619 98.8952 35.9076 100.112 35.9114C101.23 35.9114 102.228 36.1095 103.105 36.5056C103.961 36.8849 104.708 37.4755 105.275 38.2224L102.826 40.416C102.113 39.5138 101.274 39.0623 100.31 39.0617C99.4983 39.0617 98.8461 39.323 98.3533 39.8457C97.8605 40.3684 97.6137 41.07 97.6131 41.9507C97.6131 42.8313 97.8598 43.5326 98.3533 44.0547C98.8468 44.5767 99.4989 44.838 100.31 44.8387C101.274 44.8387 102.113 44.3875 102.826 43.4853L105.275 45.679C104.708 46.4255 103.961 47.0161 103.105 47.3957C102.228 47.7912 101.23 47.9893 100.112 47.9899C98.8952 47.9893 97.799 47.7331 96.8235 47.2212Z" fill="white"/>
<path d="M115.716 44.0766H109.468C109.589 44.4067 109.822 44.6839 110.125 44.8606C110.477 45.0538 110.875 45.148 111.276 45.1334C111.613 45.1424 111.95 45.0921 112.271 44.9846C112.587 44.8585 112.884 44.6862 113.15 44.4734L115.091 46.4372C114.213 47.405 112.903 47.8892 111.161 47.8898C110.076 47.8898 109.122 47.6889 108.3 47.287C107.519 46.9216 106.857 46.3408 106.393 45.6122C105.953 44.8847 105.72 44.0504 105.718 43.1994C105.717 42.3484 105.947 41.5133 106.384 40.7842C106.829 40.0735 107.461 39.4996 108.209 39.1256C109.004 38.743 109.872 38.5402 110.753 38.5317C111.634 38.5231 112.506 38.7089 113.307 39.076C114.044 39.4269 114.666 39.9823 115.099 40.6764C115.543 41.3809 115.764 42.2228 115.764 43.202C115.765 43.2573 115.748 43.5492 115.716 44.0766ZM109.895 41.387C109.631 41.6159 109.456 41.9316 109.402 42.2778H112.295C112.237 41.9352 112.063 41.6233 111.802 41.3946C111.535 41.1755 111.197 41.0613 110.852 41.0732C110.506 41.0592 110.166 41.1705 109.895 41.387Z" fill="white"/>
<path d="M118.347 47.6418C117.601 47.4765 117 47.2619 116.542 46.998L117.557 44.5411C118.019 44.8122 118.518 45.0124 119.038 45.1353C119.58 45.2749 120.138 45.347 120.698 45.3499C121.125 45.3499 121.424 45.314 121.595 45.2421C121.764 45.1706 121.849 45.0638 121.849 44.9207C121.849 44.7777 121.742 44.6785 121.528 44.6231C121.183 44.5471 120.834 44.492 120.483 44.4581C119.851 44.3892 119.225 44.2764 118.609 44.1205C118.093 43.9824 117.624 43.7054 117.252 43.3193C116.863 42.9232 116.668 42.3567 116.669 41.6197C116.663 41.0526 116.848 40.5001 117.194 40.0517C117.545 39.5888 118.068 39.22 118.765 38.9454C119.462 38.6707 120.298 38.5333 121.273 38.5333C121.942 38.5328 122.61 38.5967 123.268 38.7241C123.848 38.8266 124.41 39.0126 124.937 39.2763L123.917 41.7361C123.122 41.2947 122.227 41.0674 121.319 41.0761C120.508 41.0761 120.102 41.2191 120.102 41.5053C120.102 41.6483 120.212 41.7501 120.432 41.8105C120.773 41.892 121.119 41.9497 121.467 41.9831C122.097 42.0519 122.721 42.168 123.334 42.3303C123.846 42.4756 124.312 42.7546 124.682 43.1391C125.07 43.5352 125.265 44.1018 125.265 44.8387C125.267 45.3952 125.082 45.9361 124.74 46.3743C124.388 46.8359 123.862 47.2044 123.161 47.4797C122.459 47.755 121.61 47.8927 120.612 47.8927C119.85 47.8918 119.091 47.8077 118.347 47.6418Z" fill="white"/>
<path d="M134.198 39.5958C135.03 40.3054 135.447 41.3975 135.447 42.872V47.7248H131.994V46.5364C131.567 47.4387 130.717 47.8898 129.446 47.8898C128.733 47.8898 128.128 47.7658 127.628 47.5178C127.166 47.3056 126.775 46.962 126.505 46.5294C126.235 46.0968 126.097 45.5943 126.108 45.0838C126.108 44.1936 126.448 43.5168 127.128 43.0532C127.807 42.5897 128.838 42.3589 130.219 42.3608H131.715C131.595 41.6563 131.03 41.304 130.021 41.304C129.602 41.3059 129.186 41.3702 128.786 41.4948C128.403 41.605 128.041 41.7809 127.718 42.0146L126.534 39.5557C127.113 39.21 127.743 38.9565 128.4 38.8042C129.112 38.6249 129.844 38.5336 130.579 38.5323C132.159 38.5323 133.365 38.8868 134.198 39.5958ZM131.271 45.43C131.491 45.2717 131.652 45.0455 131.731 44.7862V44.1596H130.811C130.054 44.1596 129.676 44.4139 129.676 44.9226C129.674 45.0217 129.694 45.12 129.736 45.21C129.777 45.3001 129.838 45.3795 129.915 45.4424C130.099 45.5882 130.329 45.6615 130.564 45.6484C130.816 45.6506 131.063 45.5743 131.271 45.43Z" fill="white"/>
<path d="M143.667 38.5323V41.8324C143.395 41.7904 143.12 41.7684 142.845 41.7666C141.573 41.7666 140.938 42.4158 140.938 43.7142V47.7248H137.221V38.6964H140.757V39.6702C141.416 38.9116 142.386 38.5323 143.667 38.5323Z" fill="white"/>
<path d="M144.845 47.287C144.433 46.8852 144.227 46.3708 144.228 45.7438C144.229 45.1169 144.434 44.6082 144.845 44.2178C145.256 43.8274 145.774 43.6322 146.398 43.6322C147.023 43.6322 147.541 43.8274 147.953 44.2178C148.363 44.6088 148.569 45.1175 148.569 45.7438C148.57 46.3701 148.365 46.8845 147.953 47.287C147.527 47.6749 146.973 47.8899 146.399 47.8899C145.824 47.8899 145.27 47.6749 144.845 47.287Z" fill="white"/>
<path d="M154.193 44.9522L153.601 45.595V47.7248H149.885V35.4803H153.601V41.3231L156.182 38.6993H160.572L156.856 42.6097L160.866 47.7248H156.376L154.193 44.9522Z" fill="white"/>
<path d="M161.772 47.7248H169.994V49.7048H161.772V47.7248Z" fill="white"/>
<path d="M180.6 35.4803V47.7248H177.064V46.9818C176.527 47.5878 175.704 47.8904 174.594 47.8898C173.83 47.8957 173.078 47.6982 172.415 47.3175C171.748 46.9305 171.203 46.3622 170.843 45.678C170.454 44.9627 170.26 44.1361 170.259 43.1982C170.259 42.2603 170.453 41.4379 170.843 40.7308C171.207 40.0514 171.753 39.488 172.42 39.1046C173.083 38.7239 173.835 38.5265 174.599 38.5324C175.595 38.5324 176.355 38.7908 176.879 39.3078V35.4803H180.6ZM176.544 44.5144C176.817 44.2003 176.954 43.7628 176.954 43.202C176.954 42.6412 176.817 42.2066 176.544 41.8982C176.41 41.7524 176.247 41.636 176.066 41.5563C175.885 41.4767 175.689 41.4356 175.491 41.4356C175.294 41.4356 175.098 41.4767 174.917 41.5563C174.736 41.636 174.573 41.7524 174.439 41.8982C174.165 42.206 174.028 42.6406 174.028 43.202C174.028 43.7635 174.165 44.2009 174.439 44.5144C174.572 44.6625 174.734 44.7809 174.915 44.8619C175.097 44.943 175.293 44.9848 175.491 44.9848C175.69 44.9848 175.886 44.943 176.067 44.8619C176.249 44.7809 176.411 44.6625 176.544 44.5144Z" fill="white"/>
<path d="M192.455 38.6964V45.925C192.455 47.6418 191.98 48.9323 191.03 49.7964C190.08 50.6605 188.729 51.0922 186.977 51.0916C186.13 51.0986 185.285 51.0025 184.461 50.8055C183.756 50.644 183.083 50.3621 182.472 49.9719L183.721 47.4301C184.124 47.7202 184.574 47.938 185.052 48.0739C185.551 48.2332 186.072 48.3168 186.597 48.3219C187.343 48.3219 187.885 48.1629 188.224 47.845C188.563 47.527 188.733 47.0594 188.734 46.442V46.277C188.176 46.9128 187.348 47.2307 186.252 47.2307C185.503 47.2353 184.764 47.0506 184.105 46.6938C183.445 46.3393 182.896 45.8081 182.519 45.1591C182.117 44.4651 181.912 43.6732 181.927 42.8701C181.912 42.0706 182.116 41.2823 182.519 40.5925C182.898 39.9473 183.447 39.4194 184.105 39.0664C184.765 38.7099 185.503 38.5256 186.252 38.5304C187.479 38.5304 188.366 38.9266 188.912 39.7188V38.6964H192.455ZM188.336 43.9202C188.48 43.7872 188.593 43.6246 188.669 43.4435C188.744 43.2624 188.779 43.0671 188.772 42.871C188.78 42.6763 188.744 42.4823 188.669 42.3027C188.594 42.1231 188.48 41.9623 188.336 41.8314C188.036 41.5634 187.644 41.4214 187.243 41.4347C186.836 41.4195 186.439 41.5615 186.133 41.8314C185.989 41.9624 185.876 42.1233 185.801 42.3029C185.725 42.4825 185.69 42.6764 185.698 42.871C185.691 43.0678 185.727 43.2637 185.804 43.445C185.88 43.6262 185.996 43.7884 186.141 43.9202C186.443 44.1922 186.837 44.3371 187.243 44.3246C187.646 44.3379 188.038 44.1928 188.336 43.9202Z" fill="white"/>
</g>
<defs>
<clipPath id="clip0_14_87">
<rect width="230" height="66" fill="white"/>
</clipPath>
</defs>
</svg>
