<svg width="56" height="56" viewBox="0 0 56 56" fill="none" xmlns="http://www.w3.org/2000/svg">
<path d="M49.0001 30.3333H7.00008C6.38124 30.3333 5.78775 30.0875 5.35017 29.6499C4.91258 29.2123 4.66675 28.6188 4.66675 28C4.66675 27.3812 4.91258 26.7877 5.35017 26.3501C5.78775 25.9125 6.38124 25.6667 7.00008 25.6667H49.0001C49.6189 25.6667 50.2124 25.9125 50.65 26.3501C51.0876 26.7877 51.3334 27.3812 51.3334 28C51.3334 28.6188 51.0876 29.2123 50.65 29.6499C50.2124 30.0875 49.6189 30.3333 49.0001 30.3333ZM49.0001 42H7.00008C6.38124 42 5.78775 41.7542 5.35017 41.3166C4.91258 40.879 4.66675 40.2855 4.66675 39.6667C4.66675 39.0478 4.91258 38.4543 5.35017 38.0167C5.78775 37.5792 6.38124 37.3333 7.00008 37.3333H49.0001C49.6189 37.3333 50.2124 37.5792 50.65 38.0167C51.0876 38.4543 51.3334 39.0478 51.3334 39.6667C51.3334 40.2855 51.0876 40.879 50.65 41.3166C50.2124 41.7542 49.6189 42 49.0001 42ZM49.0001 18.6667H7.00008C6.38124 18.6667 5.78775 18.4208 5.35017 17.9832C4.91258 17.5457 4.66675 16.9522 4.66675 16.3333C4.66675 15.7145 4.91258 15.121 5.35017 14.6834C5.78775 14.2458 6.38124 14 7.00008 14H49.0001C49.6189 14 50.2124 14.2458 50.65 14.6834C51.0876 15.121 51.3334 15.7145 51.3334 16.3333C51.3334 16.9522 51.0876 17.5457 50.65 17.9832C50.2124 18.4208 49.6189 18.6667 49.0001 18.6667Z" fill="white"/>
</svg>
